<?xml version="1.0" encoding="utf-8"?>
<!-- Generator: Adobe Illustrator 19.2.0, SVG Export Plug-In . SVG Version: 6.00 Build 0)  -->
<!DOCTYPE svg PUBLIC "-//W3C//DTD SVG 1.1//EN" "http://www.w3.org/Graphics/SVG/1.1/DTD/svg11.dtd">
<svg version="1.1" id="Layer_1" xmlns="http://www.w3.org/2000/svg" xmlns:xlink="http://www.w3.org/1999/xlink" x="0px" y="0px"
	 viewBox="0 0 190.1 87.2" style="enable-background:new 0 0 190.1 87.2;" xml:space="preserve">
<style type="text/css">
	.st0{fill:#ffffff;}
</style>
<g>
	<path class="st0" d="M35.8,6.5c0.2,0,0.3,0,0.6,0c0.9,0,1.9-0.3,2.5-0.7c0.5-0.2,0.8-0.4,0.7-0.4c-0.6,0-1.6,0-1.9,0c-1.6,0-2.4,0.9-2.4,1
		C35.3,6.5,35.5,6.5,35.8,6.5z M183,48.8c-0.9-2-3.4-1.4-3.4-1.4c-1.2,0.2-2.5,1.6-4.5,2.2c-4.3,1.3-7.7-0.2-7.7-0.2
		c-6.6-2.8-27.7-14.9-38.4-20.2c0,0-12.5-5.8-30.6-12.9c0,0-35.6-15.2-59.3-13.9c0,0-12.7,0.3-16.6,5.9c0,0-0.7,0.8-0.3,1.6
		c0,0,0.1,0.2-0.1,0.4c0,0-2.1,1.9-3.2,3.6c-0.4,0.6-0.7,1.6,0,2.4c0,0,0.4,0.3,0.5,0.5c0.3,0.5,0.6,1.3,1,1.7
		c0.6,0.7,1.7,1.8,3.2,1.5c0.7-0.1,0.7-0.3,0.7-0.3c0.8,0.8,2.1,0.8,2.1,0.8c-0.2-0.5-0.7-1.5-0.8-2.1c-0.1-0.7,0.1-1.3,0.1-1.3
		c0.2-0.7,0.7-1.7,1.2-2.2c0.4-0.4,1.5-0.9,2.4-0.3c0.7,0.5,1.5,2.1,0.8,4.4c0,0.2-0.8,1.8-1.6,2.1c0,0-0.1,0-0.2,0
		c-0.6,0-1.6-0.6-1.6-0.6s0,0.1,0.1,0.7c0.1,0.3,0.2,0.7,0.3,1c0,0-0.2,0.4-0.3,0.6c-0.2,0.2-0.4,1,0.1,1.4c0,0,1.8,1.2,3.6,1.4
		c1.2,0.1,1.7-0.8,1.7-0.8c0.9-1.2,1.6-2.3,2.5-3.2c2.6-2.4,6.2-3,6.2-3c0.2,0,4.2-1.1,11,4.3c-1.9,0.2-4.2,0.6-6,0.9
		c-5,0.9-8.2,5.6-9.2,7.5c-2.4,5,2.5,6.7,2.5,6.7c0,0,4.7-0.4,7-5.4c0,0,0.8-2.2,3-1.5c1.4,0.5,14.2,4.9,17.1,5.7
		c0,0,8.5,2.2,11.7-1.7c5.1,1.7,10,2.5,22.6,0.9c2.2-0.3,3.9-0.2,3.9-0.2c3,0.2,5.6,2.2,6.5,3.5c3.3,5.3,7.5,15.9,22.2,14.6l6.6-0.6
		c4-0.2,7.3-0.4,10.7,1.4c1.5,0.8,2.3,1,4.7,3.4c3.4,3.2,6.5,6.7,10.6,4.8c1.5-0.7,3.1-3.3,3.1-3.3c-0.2-1.2-0.7-2.3-2-3.3
		c3.7,0.9,12.2,1.5,15.5-4.2C183.3,50.7,183.4,49.6,183,48.8z M181.7,51.5c-0.3,1.1-1.9,2.6-3.8,3.4c-2,0.9-6.2,1.1-8.7,0.7
		c0,0-4.7-0.5-8.8-4.8c-1.3-1.4-2.9-2.9-4.4-4.4c-0.7-0.7-2.3-2.3-4.9-2.6c-2.8-0.4-9.5-0.6-12.1-1.4c-1.7-0.6-3.8-1.7-6.5-5.8
		c-1.3-1.9-2.2-2.5-4-3.6c0,0,1.4,1.1,2.1,2.5c1.1,2,1.7,3.5,2.3,4.5c0.6,1.1,1.3,2,2.3,2.9c1.3,1,2.1,1.2,3.5,1.5
		c1.3,0.2,5.9,0.2,9.8,0.1c3.8-0.1,5.5,1.2,6.8,2.2c1.2,1,3.2,3.8,4.4,5c1.5,1.5,2.5,2.9,5.4,4.4c1,0.5,2.6,1.8,2.6,3
		c-1.3,1.3-2.9,1.6-6.8,0.6c0.3,0.3,2.3,2.4,5.8,1.4c-1,0.9-2.1,1.2-3.1,1.2c-3.6-0.2-7.2-4.7-9.2-6.3c-1.5-1.3-1.7-1.6-4.3-3.3
		c-3.9-2.7-12.7-1.9-12.7-1.9L131,51c-12.5,0.9-17.8-10.1-19.2-12.5c-0.5-0.8-0.9-1.5-1.3-2c-0.6-0.9-4.1-5.3-7.5-6.7
		c0,0,3.4,2.9,3.2,4.9c0,0-1.4-0.7-5.2-0.1c-16.5,2.3-22.1-1.8-22.1-1.8c0.8-3.3-1.5-6.7-1.5-6.7c1.3,0.4,9.4,3.1,17.1,1.6
		c0,0-12.5,0.1-21.3-6.9c0,0,5.5,6.9,4.2,11.3c0,0-0.9,4.8-10.4,2.9c-1-0.2-2.2-0.5-16.5-4.5c-3.4-1-4.5,0.6-5.1,1.6
		c0,1.4-1.7,3.1-2.5,3.6c-4.4-0.8-2.7-4.9-2.7-4.9c-2.8,4,0.1,5.7,1.1,5.9c-0.6,0.3-1.1,0.5-1.5,0.6c0,0-3.6-2.1-1.6-5.7
		c2.8-4.9,5.7-6.5,10.9-7c2.3-0.2,4.2-0.4,5.7-0.2c3.8,0.5,6.2,2.7,11.9,3.2C54.3,24,54.3,17,54.2,16.9c0,0,0,0,0,0
		c-0.7,2.3-0.3,4.3,0.3,5.9c-0.2-0.1-2.8-1.8-3.8-2.4c-4.3-2.7-7.8-3.1-7.8-3.1c-1.4-0.2-2.1-1.9-2.1-1.9c0-0.1-0.1-0.2-0.2-0.3
		c-2-3.4-4-3.5-4-3.5c1.1,1.5,1.1,3.7,1.1,3.7c0.6,4.3-4.2,5.6-4.2,5.6c-3,3.7-2.8,3.8-3.5,3.9c-0.7,0.1-2.1-0.6-2.1-0.6
		c-0.2-0.3,0.1-0.7,0.1-0.7c0.6-0.4,1-0.9,1-0.9c3.1-3.2,3.5-4.8,3.1-6.8c-0.8-4.2-3.8-3.7-3.8-3.7c-1.4,0.1-2,1.3-2,1.3
		c-0.5,0.8-1.5,3.1-1.5,3.1c-0.6,1.4-1.3,1.7-1.6,1.8c-0.1,0-0.4,0-0.5,0c-1,0-1.8-1-1.8-1c0,0-0.1-0.1-0.1-0.1
		c-0.9-1-0.3-2.3-0.3-2.3c1.2-2.9,3.6-3.3,4-3.3c0.3,0,1.4-0.2,1.4-0.2c3.1-0.5,4.5-3.7,4.5-3.7c-2.1,0-3.1,0.1-3.1,0.1
		c-2,0.4-2.7,2.7-2.7,2.7C23,10.9,23.1,9.4,23.4,9c0.3-0.4,1.3-2.2,7.9-3.7c0,0,3.2-1,10.2-0.7c0,0,0,0-0.3,0.5
		c-0.6,1.2-3,3.6-7.1,2.7c0,0,0,1.8,4.4,2.4c0,0,3.9,0.7,10.6,6.1c0,0-3.2-6.4-8.6-8c0,0-0.7-0.1-0.3-0.6c0,0,3.4-3.1,7.7-3.2
		c0,0,14.6-1.4,22.7,9.8c0,0-2.4-4.7-4.3-6.8c0,0,8.5,2.4,21.5,6.9c0,0,8.9,3.2,14.6,5.4c7.7,3,26.9,10.5,39.2,17.2
		c2.2,1.2,24.4,12.8,24.4,12.8c6.1,2.8,10.4,1.1,10.4,1.1c1.4-0.5,3.9-2.5,5-1.4C181.9,50,182,50.8,181.7,51.5z M25.4,10.4
		c0,0,0.1-0.4,0.2-0.5c0-0.1,0.4-1.1,1.3-1.2c0,0,0.5,0,1.3,0c0,0-0.4,1.3-2,1.5C26.2,10.3,25.6,10.4,25.4,10.4z"/>
	<path id="FS_Master_Logo_1_" class="st0" d="M34.4,82.1h13.3L41,74.3L34.4,82.1z M49.4,84H32.7L30,87.2h-3.3l13.1-15.1h5.5
		l13.1,15.1h-6.3L49.4,84z M132.8,82.1h13.3l-6.7-7.7L132.8,82.1z M147.8,84h-16.7l-2.8,3.2h-3.3l13.1-15.1h5.5l13.1,15.1h-6.3
		L147.8,84z M24.1,72.1v7.4c0,2.4-0.5,3.8-1.7,5c-2,2-5.8,2.8-11.1,2.8H0v-2h10.4c3.2,0,5.4-0.5,6.7-1.8c1-1,1.4-2.3,1.4-4.3v-6.9
		H24.1z M82.9,85.2v-4.9h5.6v6.9H72.3c-3.1,0-5.5-0.4-7.3-1.1c-3-1.2-4.4-3.4-4.4-6.5c0-2.9,1.5-4.9,3.4-5.9c2-1.1,4.3-1.6,8.2-1.6
		H88v2H73.9c-3,0-4.7,0.5-5.9,1.5c-1.1,0.9-1.7,2.3-1.7,4.1c0,1.9,0.6,3.3,1.8,4.2c1.3,1,2.9,1.4,5.8,1.4L82.9,85.2z M181.3,81.9
		c2.1-0.1,3.9-0.4,5.3-1.1c1.4-0.8,2.1-2.2,2.1-3.7c0-2-0.9-3.3-2.5-4c-1.5-0.6-3.3-0.9-6.9-0.9h-17.4v15.1h5.6V82h7.4l8.4,5.2h6.9
		L181.3,81.9z M178.6,74c2.1,0,3,0.2,3.7,0.7c0.6,0.5,0.8,1.2,0.8,2.2v0.3c0,1-0.2,1.8-1,2.3c-0.7,0.5-1.7,0.6-3.5,0.6h-11.2V74
		H178.6z M122.6,72.1v7.5c0,1.9-0.2,3.5-1.2,4.8c-1.6,2.1-4.5,3.3-12.7,3.3h-0.1c-8.1,0-11.1-1.2-12.7-3.3c-1-1.3-1.2-2.8-1.2-4.8
		v-7.5h5.6v7.3c0,2,0.2,3.1,1,4.1c1.2,1.7,3.3,2.3,7.1,2.3h0.5c4,0,5.9-0.6,7.1-2.3c0.7-1,1-2.2,1-4.1v-7.3H122.6z"/>
</g>
</svg>
