<?xml version="1.0" encoding="utf-8"?>
<!-- Generator: Adobe Illustrator 22.1.0, SVG Export Plug-In . SVG Version: 6.00 Build 0)  -->
<svg version="1.1" id="Layer_1" xmlns="http://www.w3.org/2000/svg" xmlns:xlink="http://www.w3.org/1999/xlink" x="0px" y="0px"
	 viewBox="0 0 1500 1500" style="enable-background:new 0 0 1500 1500;" xml:space="preserve">
<style type="text/css">
	.st0{fill:#E81E25;}
	.st1{font-family:'ArialRoundedMTBold';}
	.st2{font-size:293px;}
	.st3{fill:#2D419A;}
</style>
<g>
	<g>
		<g>
			<path d="M348.9,973.8c114.8,0,207.5-92.8,207.5-207.5V468.4c0-114.8-92.8-207.5-207.5-207.5s-207.5,92.8-207.5,207.5v297.9
				C141.4,881,234.2,973.8,348.9,973.8z M190.2,739.4h97.7c14.6,0,24.4-9.8,24.4-24.4s-9.8-24.4-24.4-24.4h-97.7v-48.8h97.7
				c14.6,0,24.4-9.8,24.4-24.4s-9.8-24.4-24.4-24.4h-97.7v-48.8h97.7c14.6,0,24.4-9.8,24.4-24.4s-9.8-24.4-24.4-24.4h-97.7v-26.9
				c0-87.9,70.8-158.7,158.7-158.7s158.7,70.8,158.7,158.7v26.9H410c-14.6,0-24.4,9.8-24.4,24.4c0,12.2,12.2,24.4,24.4,24.4h97.7
				v48.8H410c-14.6,0-24.4,9.8-24.4,24.4c0,12.2,12.2,24.4,24.4,24.4h97.7v48.8H410c-14.6,0-24.4,9.8-24.4,24.4
				c0,12.2,12.2,24.4,24.4,24.4h97.7v26.9c0,87.9-70.8,158.7-158.7,158.7s-158.7-70.8-158.7-158.7V739.4z"/>
			<path d="M654.1,763.8c0-12.2-12.2-24.4-24.4-24.4s-24.4,12.2-24.4,24.4c0,141.6-114.8,256.4-256.4,256.4S92.6,905.4,92.6,763.8
				c0-12.2-12.2-24.4-24.4-24.4s-24.4,12.2-24.4,24.4c0,161.1,124.5,293,280.8,305.2v119.6H165.8c-12.2,0-24.4,9.8-24.4,24.4
				s12.2,24.4,24.4,24.4h366.2c12.2,0,24.4-9.8,24.4-24.4s-12.2-24.4-24.4-24.4H373.4V1069C529.6,1056.8,654.1,924.9,654.1,763.8z"
				/>
		</g>
	</g>
</g>
<text transform="matrix(1 0 0 1 667.6187 478.3828)"><tspan x="0" y="0" class="st0 st1 st2">RED</tspan><tspan x="0" y="252.3" class="st0 st1 st2">MOM</tspan></text>
<text transform="matrix(1 0 0 1 667.6187 981.376)"><tspan x="0" y="0" class="st3 st1 st2">BLUE</tspan><tspan x="0" y="252.3" class="st3 st1 st2">MOM</tspan></text>
</svg>
